<svg width="416" height="140" viewBox="0 0 416 140" fill="none" xmlns="http://www.w3.org/2000/svg">
<path d="M184.405 75.7099H212.995V63.8199H184.405V50.6599H215.715V38.4099H184.405H170.155V102.48H216.165V90.2299C216.165 90.2299 216.125 90.1399 216.075 90.1399H184.405V75.7099Z" fill="#0A1C4F"/>
<path d="M251.865 61.2501C250.855 60.4501 249.735 59.7701 248.505 59.2001C246.085 58.0501 243.365 57.4801 240.335 57.4801C236.165 57.4801 232.445 58.4801 229.175 60.4701C225.965 62.4701 223.425 65.1901 221.555 68.6401C219.735 72.0901 218.825 76.0201 218.825 80.4401C218.825 84.8601 219.735 88.7901 221.555 92.2301C223.425 95.6801 225.965 98.4101 229.175 100.4C232.445 102.4 236.165 103.4 240.335 103.4C243.365 103.4 246.115 102.79 248.595 101.58C249.905 100.91 251.085 100.13 252.135 99.2401V102.49H265.745V36.6101H251.865V61.2501ZM241.495 92.6701C235.095 92.6701 229.905 87.1901 229.905 80.4401C229.905 78.6601 230.265 76.9701 230.915 75.4501C232.715 71.1801 236.775 68.2001 241.495 68.2001C242.275 68.2001 243.025 68.2801 243.765 68.4401C249.085 69.5501 253.095 74.5001 253.095 80.4401C253.095 87.1901 247.905 92.6701 241.495 92.6701Z" fill="#0A1C4F"/>
<path d="M303.745 58.3799L294.305 85.6799L284.875 58.3799H269.895L288.595 102.48H299.755L318.445 58.3799H303.745Z" fill="#0A1C4F"/>
<path d="M350.065 62.06C348.865 60.9 347.475 59.96 345.885 59.2C343.525 58.05 340.865 57.48 337.905 57.48C333.845 57.48 330.215 58.48 327.015 60.47C323.865 62.47 321.355 65.19 319.485 68.64C317.665 72.09 316.755 76.02 316.755 80.44C316.755 84.86 317.665 88.79 319.485 92.23C321.355 95.68 323.865 98.41 327.015 100.4C330.215 102.4 333.845 103.4 337.905 103.4C340.865 103.4 343.555 102.82 345.975 101.67C347.535 100.93 348.905 100.01 350.065 98.9V102.49H363.675V58.38H350.065V62.06ZM346.355 89.27C344.315 91.24 341.585 92.44 338.595 92.44C332.255 92.44 327.125 87.06 327.125 80.43C327.125 79.62 327.205 78.82 327.345 78.06C327.355 78.04 327.355 78.02 327.355 78.01C328.425 72.53 333.045 68.41 338.595 68.41C338.935 68.41 339.265 68.43 339.595 68.46C342.275 68.7 344.695 69.92 346.535 71.76C348.715 73.95 350.065 77.02 350.065 80.43C350.065 83.84 348.635 87.07 346.355 89.27Z" fill="#0A1C4F"/>
<path d="M105.795 0H35.7949C16.465 0 0.794922 15.67 0.794922 35V105C0.794922 124.33 16.465 140 35.7949 140H105.795C125.125 140 140.795 124.33 140.795 105V35C140.795 15.67 125.125 0 105.795 0Z" fill="#005CF3"/>
<path d="M56.0352 87.3202L78.8752 79.0102C88.2152 75.6102 93.0352 65.2802 89.6352 55.9402L89.4552 55.4302L49.1952 70.0802C39.8552 73.4802 35.0352 83.8102 38.4352 93.1502L43.8652 108.06C47.2652 117.41 57.5952 122.22 66.9352 118.82L104.175 105.27C113.515 101.87 118.335 91.5502 114.935 82.2002L114.755 81.7002L61.0952 101.23L56.0352 87.3202Z" fill="white"/>
<path d="M37.8051 38.7701C28.4651 42.1701 23.6451 52.5001 27.0451 61.8401L27.2251 62.3401L81.3851 42.6301C90.7251 39.2301 95.5451 28.9001 92.1451 19.5601L91.9651 19.0601L37.8051 38.7701Z" fill="white"/>
<path d="M398.155 79.1701L399.845 76.9901L414.285 58.3701H398.765L395.165 63.3701C395.165 63.3701 395.155 63.3801 395.155 63.3901L389.325 71.4601L388.865 72.1001L384.915 77.5701V77.6001L384.535 78.1301V36.6001H370.645V102.48H384.535V96.4501L390.065 89.4301L398.825 102.48H415.205L398.165 79.1701H398.155Z" fill="#0A1C4F"/>
</svg>
